<!DOCTYPE svg PUBLIC "-//W3C//DTD SVG 20010904//EN" "http://www.w3.org/TR/2001/REC-SVG-20010904/DTD/svg10.dtd">
<svg version="1.0" xmlns="http://www.w3.org/2000/svg" width="250px" height="250px" viewBox="0 0 2500 2500" preserveAspectRatio="xMidYMid meet">
<g id="layer1" fill="#cc0000" stroke="none">
 <path d="M442 2027 c-72 -73 -132 -137 -132 -142 0 -5 153 -163 340 -350 l340 -340 -340 -340 c-187 -187 -340 -344 -340 -350 0 -13 262 -275 275 -275 5 0 163 153 350 340 l340 340 340 -340 c187 -187 344 -340 350 -340 13 0 275 262 275 275 0 6 -153 163 -340 350 l-340 340 347 347 346 346 -138 134 c-75 73 -142 135 -147 137 -6 2 -164 -150 -352 -338 l-341 -341 -340 340 c-187 187 -344 340 -350 340 -6 0 -70 -60 -143 -133z"/>
 </g>

</svg>