<?xml version="1.0" encoding="iso-8859-1"?>
<!-- Generator: Adobe Illustrator 16.0.0, SVG Export Plug-In . SVG Version: 6.00 Build 0)  -->
<!DOCTYPE svg PUBLIC "-//W3C//DTD SVG 1.1//EN" "http://www.w3.org/Graphics/SVG/1.1/DTD/svg11.dtd">
<svg xmlns="http://www.w3.org/2000/svg" xmlns:xlink="http://www.w3.org/1999/xlink" version="1.1" id="Capa_1" x="0px" y="0px" width="512px" height="512px" viewBox="0 0 91.691 91.692" style="enable-background:new 0 0 91.691 91.692;" xml:space="preserve">
<g>
	<g>
		<polygon points="74.266,14.031 69.471,14.031 69.471,29.812 82.928,29.812 82.928,25.015 74.266,25.015   " fill="#00a2e6"/>
		<path d="M71.94,5.329c-9.073,0-16.718,6.156-19.021,14.508h-7.692h-4.737H16.567l-1.393-6.892L1.245,10.62L0,18.089l8.785,1.463    l9.32,44.964l-4.092,13.011h5.658c-0.32,0.772-0.5,1.627-0.5,2.522c0,3.486,2.656,6.313,5.934,6.313    c3.276,0,5.932-2.826,5.932-6.313c0-0.896-0.18-1.75-0.496-2.522H61.83c-0.318,0.772-0.496,1.627-0.496,2.522    c0,3.486,2.654,6.313,5.932,6.313c3.274,0,5.932-2.826,5.932-6.313c0-0.896-0.18-1.75-0.498-2.522h5.018v-7.57H24.331l0.766-2.43    l53.036-22.192v-1.516c7.863-2.604,13.559-10.014,13.559-18.74C91.69,14.188,82.831,5.329,71.94,5.329z M71.94,38.829    c-7.582,0-13.75-6.168-13.75-13.75s6.168-13.75,13.75-13.75c7.581,0,13.75,6.168,13.75,13.75S79.521,38.829,71.94,38.829z" fill="#00a2e6"/>
	</g>
</g>
<g>
</g>
<g>
</g>
<g>
</g>
<g>
</g>
<g>
</g>
<g>
</g>
<g>
</g>
<g>
</g>
<g>
</g>
<g>
</g>
<g>
</g>
<g>
</g>
<g>
</g>
<g>
</g>
<g>
</g>
</svg>
