<!DOCTYPE svg PUBLIC "-//W3C//DTD SVG 20010904//EN" "http://www.w3.org/TR/2001/REC-SVG-20010904/DTD/svg10.dtd">
<svg version="1.0" xmlns="http://www.w3.org/2000/svg" width="685px" height="800px" viewBox="0 0 6850 8000" preserveAspectRatio="xMidYMid meet">
<g id="layer1" fill="#00b600" stroke="none">
 <path d="M1575 7981 c-76 -47 -91 -86 -99 -261 -16 -341 -148 -652 -392 -918 -205 -223 -322 -398 -483 -723 -214 -429 -291 -735 -291 -1151 0 -183 19 -359 55 -522 43 -189 148 -476 174 -476 6 0 41 22 78 48 229 162 490 286 753 358 562 154 1154 103 1675 -146 494 -235 878 -615 1124 -1111 73 -147 99 -218 201 -545 85 -275 333 -493 693 -610 125 -40 328 -77 372 -68 85 18 144 74 166 157 17 60 5 108 -50 201 -45 78 -93 192 -117 281 -26 97 -30 269 -8 378 17 86 21 94 59 126 93 80 283 273 362 369 174 210 342 497 422 718 l33 92 151 4 c141 3 156 6 212 31 36 17 79 48 107 78 78 83 78 85 78 628 0 448 -1 473 -20 525 -24 64 -96 136 -168 169 -40 18 -69 22 -193 25 l-147 4 -43 116 c-86 234 -239 503 -405 712 -37 47 -165 182 -284 300 -229 227 -275 285 -346 434 -71 151 -86 228 -93 471 -7 230 -12 253 -74 299 -28 21 -36 21 -636 24 l-607 2 -35 -23 c-18 -12 -44 -40 -56 -62 -20 -36 -23 -54 -23 -175 l0 -135 -337 -1 c-186 0 -368 -5 -405 -10 l-67 -10 -3 156 c-3 154 -3 157 -31 193 -53 70 -22 67 -679 67 -561 0 -595 -1 -623 -19z m3757 -3778 c157 -85 163 -317 10 -418 -68 -45 -175 -50 -250 -11 -80 41 -141 161 -127 249 29 176 211 265 367 180z"/>
 <path d="M1740 4025 c-371 -51 -732 -210 -1015 -447 -237 -199 -409 -419 -539 -690 -139 -290 -186 -510 -186 -873 0 -216 14 -359 51 -510 115 -468 427 -906 845 -1183 260 -172 558 -283 839 -311 258 -26 621 -6 802 43 816 222 1406 920 1492 1765 67 653 -204 1320 -707 1742 -314 263 -672 419 -1072 469 -113 14 -392 11 -510 -5z m397 -668 c15 -15 19 -41 23 -158 l5 -141 30 -24 c16 -13 43 -26 60 -30 16 -3 68 -24 115 -46 67 -32 101 -57 162 -118 206 -205 234 -496 72 -741 -79 -120 -167 -184 -386 -279 -221 -96 -300 -135 -343 -169 -116 -93 -116 -222 0 -303 103 -72 362 -55 569 37 31 14 61 25 66 25 5 0 16 -13 24 -28 25 -49 87 -276 82 -298 -9 -36 -173 -99 -324 -124 -111 -18 -116 -25 -122 -165 -6 -148 -3 -145 -159 -145 -64 0 -123 5 -131 10 -12 7 -16 39 -20 140 -7 154 -10 160 -125 204 -218 85 -348 225 -390 422 -42 199 10 371 153 505 84 79 180 133 390 220 267 111 349 176 360 288 9 97 -44 178 -145 223 -127 56 -366 32 -567 -58 -45 -20 -93 -38 -107 -41 -31 -6 -34 2 -78 157 -44 156 -45 163 -24 188 28 35 184 92 330 122 82 16 141 34 151 44 13 13 18 43 22 140 5 129 13 151 53 160 12 2 70 3 129 2 88 -1 111 -5 125 -19z"/>
 </g>

</svg>