<!DOCTYPE svg PUBLIC "-//W3C//DTD SVG 20010904//EN" "http://www.w3.org/TR/2001/REC-SVG-20010904/DTD/svg10.dtd">
<svg version="1.0" xmlns="http://www.w3.org/2000/svg" width="98px" height="92px" viewBox="0 0 980 920" preserveAspectRatio="xMidYMid meet">
<g id="layer1" fill="#00b600" stroke="none">
 <path d="M16 904 c-3 -8 -6 -152 -6 -319 0 -341 -3 -330 75 -323 l45 3 0 -113 c0 -62 5 -122 10 -133 10 -18 23 -19 229 -19 l218 0 62 69 61 69 0 115 c0 108 1 115 19 110 32 -8 61 30 61 82 l0 45 95 0 95 0 0 52 c0 44 -10 71 -61 173 -34 66 -74 138 -88 160 l-27 40 -391 3 c-350 2 -391 1 -397 -14z m121 -108 c30 -61 31 -64 12 -69 -18 -5 -19 -16 -19 -205 l0 -200 -27 7 -28 7 -3 250 c-1 137 0 254 3 261 10 28 32 10 62 -51z m102 -203 c22 -44 26 -61 16 -57 -38 15 -61 -47 -26 -66 29 -15 81 -12 87 5 5 12 33 15 168 15 l161 0 -3 -126 c-3 -121 -4 -125 -21 -110 -16 14 -44 16 -206 14 -166 -3 -189 -5 -199 -20 -8 -13 -8 -23 0 -35 10 -16 33 -18 199 -21 164 -2 190 0 206 14 18 16 19 16 19 -4 0 -20 -6 -22 -48 -22 -26 0 -53 -5 -60 -12 -7 -7 -12 -36 -12 -65 l0 -53 -160 0 -160 0 0 307 c0 168 2 304 4 302 2 -2 18 -32 35 -66z"/>
 <path d="M214 386 c-3 -8 -4 -23 -2 -33 3 -17 18 -18 208 -18 l205 0 0 30 0 30 -203 3 c-170 2 -203 0 -208 -12z"/>
 </g>

</svg>