<!DOCTYPE svg PUBLIC "-//W3C//DTD SVG 20010904//EN" "http://www.w3.org/TR/2001/REC-SVG-20010904/DTD/svg10.dtd">
<svg version="1.0" xmlns="http://www.w3.org/2000/svg" width="97px" height="97px" viewBox="0 0 970 970" preserveAspectRatio="xMidYMid meet">
<g id="layer1" fill="#00b600" stroke="none">
 <path d="M330 956 c-75 -21 -132 -56 -196 -120 -101 -101 -134 -187 -134 -351 0 -164 33 -250 134 -351 101 -101 187 -134 351 -134 164 0 250 33 351 134 101 101 134 187 134 351 0 164 -33 250 -134 351 -103 102 -188 134 -356 133 -58 0 -125 -6 -150 -13z m305 -140 c78 -35 146 -103 182 -180 24 -53 28 -73 28 -151 0 -78 -4 -98 -28 -151 -36 -77 -104 -145 -182 -181 -87 -41 -213 -41 -300 0 -78 36 -146 104 -182 181 -24 53 -28 73 -28 151 0 78 4 98 28 150 65 140 193 218 347 212 56 -3 91 -10 135 -31z"/>
 <path d="M442 548 c-8 -8 -12 -65 -12 -188 0 -159 2 -179 18 -193 24 -22 45 -21 65 1 14 15 17 42 17 155 l0 137 118 0 c78 0 122 4 130 12 15 15 15 61 0 76 -17 17 -319 17 -336 0z"/>
 </g>

</svg>