<!DOCTYPE svg PUBLIC "-//W3C//DTD SVG 20010904//EN" "http://www.w3.org/TR/2001/REC-SVG-20010904/DTD/svg10.dtd">
<svg version="1.0" xmlns="http://www.w3.org/2000/svg" width="800px" height="679px" viewBox="0 0 8000 6790" preserveAspectRatio="xMidYMid meet">
<g id="layer1" fill="#00b600" stroke="none">
 <path d="M3030 6778 c-647 -53 -1339 -354 -1860 -810 -99 -87 -295 -285 -373 -378 -396 -470 -652 -1025 -759 -1646 -20 -119 -22 -161 -22 -549 0 -463 4 -511 75 -805 193 -796 673 -1497 1359 -1987 465 -331 1065 -553 1605 -592 190 -14 530 -14 705 0 959 75 1893 631 2462 1464 269 395 446 821 537 1295 87 456 69 999 -48 1463 l-29 116 -275 318 c-151 175 -281 324 -288 330 -11 9 -45 -13 -169 -109 -330 -256 -477 -363 -550 -397 -72 -35 -79 -36 -185 -36 -108 0 -112 1 -190 39 -104 51 -236 180 -284 278 -43 87 -58 178 -44 257 23 120 83 212 468 712 157 203 285 374 285 379 0 18 -323 223 -473 301 -412 212 -796 325 -1222 359 -150 12 -571 11 -725 -2z m575 -1088 c50 -25 55 -49 58 -276 4 -227 9 -250 63 -293 15 -12 58 -30 96 -42 238 -70 433 -202 568 -381 190 -252 251 -561 169 -860 -26 -97 -106 -257 -168 -339 -62 -81 -169 -184 -252 -240 -87 -59 -299 -163 -524 -257 -300 -125 -405 -184 -492 -274 -116 -120 -114 -293 6 -401 92 -83 179 -107 386 -107 232 0 380 31 607 127 125 53 148 52 177 -5 22 -43 141 -450 141 -482 0 -43 -28 -77 -87 -105 -103 -49 -284 -104 -433 -131 -80 -14 -157 -33 -172 -40 -47 -24 -55 -55 -61 -234 -3 -91 -11 -179 -17 -196 -18 -51 -46 -58 -246 -62 -198 -4 -256 4 -276 41 -8 14 -14 96 -18 235 l-5 214 -31 28 c-17 15 -76 44 -130 65 -382 146 -588 346 -679 660 -103 357 -15 699 243 936 147 135 335 238 707 389 232 95 305 131 396 200 273 205 198 546 -141 644 -98 28 -206 37 -320 26 -222 -23 -425 -79 -629 -175 -64 -30 -124 -55 -133 -55 -40 0 -70 73 -153 375 -57 212 -50 238 88 305 150 72 351 129 606 170 55 9 81 19 105 40 l31 28 6 199 c8 297 3 293 314 289 128 -1 177 -5 200 -16z"/>
 <path d="M6070 6444 c-22 -20 -116 -134 -207 -253 -92 -119 -298 -385 -457 -591 -356 -460 -436 -577 -436 -635 0 -95 152 -246 247 -245 62 1 123 44 703 496 244 190 228 180 243 161 57 -72 1413 -1633 1451 -1669 54 -53 102 -73 150 -64 40 8 134 68 194 123 42 40 42 40 42 112 0 45 -6 83 -15 102 -14 25 -766 1105 -1486 2134 -142 202 -237 328 -258 342 -24 16 -49 23 -82 23 -42 0 -55 -5 -89 -36z"/>
 </g>

</svg>