<!DOCTYPE svg PUBLIC "-//W3C//DTD SVG 20010904//EN" "http://www.w3.org/TR/2001/REC-SVG-20010904/DTD/svg10.dtd">
<svg version="1.0" xmlns="http://www.w3.org/2000/svg" width="512px" height="512px" viewBox="0 0 5120 5120" preserveAspectRatio="xMidYMid meet">
<g id="layer1" fill="#ffffff" stroke="none">
 <path d="M3114 3970 c-67 -14 -111 -36 -163 -85 -113 -106 -130 -269 -41 -403 l39 -58 93 -24 c194 -52 303 -27 416 95 73 77 97 139 89 226 -11 119 -124 219 -282 248 -66 12 -92 12 -151 1z m171 -191 c21 -19 35 -40 35 -54 0 -13 5 -46 12 -74 10 -43 9 -53 -6 -75 -23 -36 -77 -36 -100 -1 l-17 26 -26 -21 c-31 -24 -61 -26 -91 -4 -29 20 -28 48 4 112 27 55 102 122 135 122 10 0 34 -14 54 -31z"/>
 <path d="M1751 3919 c-125 -24 -220 -137 -221 -260 0 -122 53 -203 175 -265 69 -34 85 -38 149 -38 84 1 144 24 204 79 105 95 109 233 9 363 -48 64 -110 102 -191 119 -68 14 -65 14 -125 2z m90 -180 c24 -13 109 -126 109 -145 0 -21 -37 -54 -60 -54 -12 0 -38 18 -58 40 l-37 41 -30 -31 c-45 -47 -105 -37 -105 18 0 30 43 87 89 118 39 26 62 30 92 13z"/>
 <path d="M2207 3653 c-4 -3 -7 -23 -7 -43 0 -78 -28 -142 -89 -201 -79 -77 -146 -103 -266 -103 -76 -1 -97 3 -135 23 -46 25 -183 155 -213 203 l-16 26 -153 1 c-84 1 -174 4 -200 7 -40 6 -47 4 -58 -15 -28 -53 34 -214 126 -326 90 -109 154 -147 311 -185 l88 -22 1 -91 c4 -236 140 -528 331 -709 116 -109 273 -192 425 -224 86 -18 270 -20 356 -4 328 60 591 269 715 571 39 92 69 225 65 278 l-3 34 90 24 c203 54 327 145 398 293 46 97 61 177 55 293 -7 132 -11 137 -106 137 -42 0 -115 7 -162 15 -112 20 -139 19 -146 -2 -22 -68 -79 -165 -124 -210 -114 -113 -258 -156 -390 -117 -56 17 -171 77 -227 120 -38 29 -80 96 -98 156 l-12 42 -214 1 c-168 1 -226 5 -269 18 -63 19 -64 19 -73 10z m23 -689 c36 -8 80 -24 98 -34 18 -11 44 -20 57 -20 13 0 26 -4 30 -9 14 -24 55 -573 46 -636 -5 -38 -5 -39 -10 -10 -6 28 -9 30 -81 41 -98 15 -163 35 -240 73 -195 97 -301 224 -335 403 l-14 73 27 28 c81 86 270 127 422 91z m944 -23 c71 -8 91 -14 103 -31 8 -11 21 -20 30 -20 13 0 14 -8 9 -41 -26 -161 -142 -352 -278 -454 -83 -63 -209 -122 -283 -134 -33 -5 -61 -8 -62 -7 -6 5 -44 324 -53 441 -16 217 -14 244 13 255 26 12 387 5 521 -9z"/>
 <path d="M1957 1903 c-17 -16 -6 -54 18 -63 49 -19 147 -30 167 -19 34 18 19 51 -32 71 -45 17 -141 24 -153 11z"/>
 <path d="M2455 1768 c-79 -88 -145 -188 -145 -220 0 -41 48 -88 91 -88 25 0 41 9 74 46 l42 45 12 -30 c17 -39 40 -59 78 -67 25 -5 37 0 63 23 43 38 43 64 -1 183 -41 114 -80 160 -132 160 -30 0 -42 -8 -82 -52z"/>
 <path d="M1913 1686 c-23 -20 -26 -28 -17 -43 9 -14 27 -19 87 -21 68 -3 77 -1 87 18 9 17 6 24 -14 45 -35 35 -103 35 -143 1z"/>
 <path d="M3092 1688 c-63 -25 -89 -56 -72 -87 7 -14 21 -21 39 -21 48 0 131 30 164 60 26 24 30 32 21 47 -16 26 -87 27 -152 1z"/>
 <path d="M2105 1448 c-15 -18 -37 -52 -48 -75 l-21 -43 20 -21 c28 -28 47 -17 89 49 39 63 44 96 16 112 -27 14 -26 14 -56 -22z"/>
 <path d="M3056 1441 c-14 -15 -15 -24 -7 -40 15 -28 40 -40 107 -52 48 -9 59 -8 75 7 10 9 19 22 19 29 0 22 -37 46 -91 61 -71 18 -83 18 -103 -5z"/>
 <path d="M2615 1326 c-34 -24 -2 -166 38 -174 35 -7 48 16 41 72 -9 67 -19 93 -42 105 -14 7 -24 7 -37 -3z"/>
 <path d="M2346 1287 c-21 -16 -33 -125 -17 -155 13 -24 43 -29 59 -9 14 17 26 101 18 132 -8 32 -38 48 -60 32z"/>
 <path d="M2862 1288 c-20 -20 -14 -52 16 -94 46 -63 57 -69 87 -50 34 22 31 50 -11 107 -36 50 -67 62 -92 37z"/>
 </g>

</svg>