<!DOCTYPE svg PUBLIC "-//W3C//DTD SVG 20010904//EN" "http://www.w3.org/TR/2001/REC-SVG-20010904/DTD/svg10.dtd">
<svg version="1.0" xmlns="http://www.w3.org/2000/svg" width="512px" height="512px" viewBox="0 0 5120 5120" preserveAspectRatio="xMidYMid meet">
<g id="layer1" fill="#ffffff" stroke="none">
 <path d="M618 4910 c-241 -41 -467 -218 -567 -445 -50 -111 -51 -141 -51 -1160 0 -1067 -1 -1050 69 -1189 98 -197 271 -339 481 -395 41 -11 107 -23 146 -26 l71 -7 -20 -40 c-19 -37 -19 -44 -6 -82 9 -25 27 -49 48 -63 33 -22 40 -23 284 -23 l249 0 39 39 c32 32 39 46 39 78 0 26 -8 50 -21 67 l-20 26 477 0 477 0 94 -87 c52 -49 106 -96 121 -105 25 -17 76 -18 689 -18 384 0 672 4 686 9 14 5 62 52 107 104 l82 94 201 6 c221 6 290 19 414 78 82 39 192 126 254 202 68 84 134 223 148 314 7 49 11 374 11 1020 0 1016 -1 1047 -51 1158 -88 200 -260 351 -484 426 l-70 24 -1925 1 c-1059 1 -1946 -2 -1972 -6z m3871 -245 c192 -46 351 -205 390 -393 8 -36 11 -339 11 -970 0 -1003 2 -970 -59 -1090 -59 -116 -161 -203 -295 -250 -66 -24 -87 -26 -305 -30 l-233 -5 -32 -27 c-17 -15 -60 -62 -96 -104 l-65 -76 -587 0 -588 0 -83 77 c-45 43 -95 89 -110 103 l-28 25 -877 5 c-871 5 -877 6 -942 27 -130 45 -243 140 -301 255 -61 120 -59 87 -59 1090 0 631 3 934 11 970 39 185 197 347 385 392 91 22 3770 23 3863 1z"/>
 <path d="M2356 4474 c-221 -44 -409 -147 -570 -314 -138 -144 -221 -287 -272 -476 -25 -90 -28 -115 -28 -269 0 -152 3 -180 27 -267 50 -189 145 -354 282 -493 366 -369 929 -427 1361 -140 218 145 382 376 451 630 23 89 27 119 27 265 0 142 -3 178 -23 254 -51 197 -134 346 -272 491 -166 173 -354 277 -582 320 -98 18 -306 18 -401 -1z m419 -249 c91 -25 233 -97 311 -158 269 -213 380 -590 269 -916 -75 -220 -216 -384 -420 -486 -347 -173 -775 -84 -1019 211 -135 164 -207 386 -193 594 27 377 292 681 667 765 84 19 300 13 385 -10z"/>
 <path d="M704 4381 c-11 -5 -33 -23 -47 -41 l-27 -32 0 -1005 0 -1005 34 -34 c29 -29 41 -34 80 -34 39 0 52 6 84 34 l37 34 3 991 c3 1074 4 1039 -51 1076 -31 20 -85 28 -113 16z"/>
 <path d="M4175 2555 c-81 -44 -134 -126 -135 -208 0 -59 17 -102 61 -152 107 -121 293 -91 371 59 29 57 23 158 -15 215 -44 66 -97 95 -181 99 -51 2 -79 -2 -101 -13z"/>
 <path d="M2584 1256 l-34 -34 0 -471 c0 -518 -2 -504 61 -537 42 -21 1136 -21 1178 0 63 33 61 19 61 537 l0 471 -34 34 -34 34 -582 0 -582 0 -34 -34z m1026 -511 l0 -305 -410 0 -410 0 0 305 0 305 410 0 410 0 0 -305z"/>
 </g>

</svg>