<!DOCTYPE svg PUBLIC "-//W3C//DTD SVG 20010904//EN" "http://www.w3.org/TR/2001/REC-SVG-20010904/DTD/svg10.dtd">
<svg version="1.0" xmlns="http://www.w3.org/2000/svg" width="512px" height="512px" viewBox="0 0 5120 5120" preserveAspectRatio="xMidYMid meet">
<g id="layer1" fill="#ffffff" stroke="none">
 <path d="M190 5103 c-41 -15 -40 32 -40 -1650 l0 -1613 -49 0 c-34 0 -56 -6 -75 -21 l-26 -20 0 -454 0 -454 26 -20 c26 -21 34 -21 773 -22 581 0 742 -3 727 -12 -171 -107 -318 -237 -390 -345 -48 -73 -86 -172 -86 -225 0 -65 27 -130 72 -174 58 -56 88 -68 192 -83 252 -35 589 62 881 255 51 34 136 106 196 165 l107 105 33 -44 c85 -112 278 -253 471 -346 173 -83 279 -114 445 -133 128 -14 152 -14 236 0 108 17 162 47 208 114 91 133 42 283 -157 475 -49 47 -138 120 -198 162 l-109 77 812 0 c861 0 857 0 875 45 3 9 6 214 6 455 l0 438 -31 26 c-23 19 -42 26 -75 26 l-44 0 0 158 1 157 47 37 c100 79 102 82 102 151 l0 62 -75 94 -75 94 0 1233 0 1233 -24 28 -24 28 -2359 2 c-1297 1 -2365 -1 -2373 -4z m1800 -1728 l0 -1545 -830 0 -830 0 0 1545 0 1545 830 0 830 0 0 -1545z m800 0 l0 -1545 -310 0 -310 0 0 1545 0 1545 310 0 310 0 0 -1545z m1990 495 c0 -577 -2 -1050 -4 -1050 -2 0 -70 78 -152 173 -197 228 -206 237 -255 237 -25 0 -52 -8 -73 -22 -18 -13 -316 -263 -663 -556 -650 -549 -642 -541 -656 -622 -2 -14 -5 631 -6 1433 l-1 1457 905 0 905 0 0 -1050z m-225 -1101 c105 -126 202 -243 217 -260 15 -16 52 -59 81 -96 l54 -66 -570 -476 c-313 -262 -580 -484 -593 -494 -22 -17 -42 -18 -316 -10 l-292 8 102 82 103 82 51 -27 c69 -36 181 -38 244 -5 55 29 127 111 142 161 38 124 -21 257 -140 316 -41 21 -67 26 -123 26 -115 0 -194 -51 -250 -160 -25 -48 -31 -145 -12 -197 l15 -43 -89 -70 c-78 -61 -89 -67 -89 -48 1 49 77 519 86 527 5 5 266 222 580 484 315 261 575 480 579 486 3 6 12 11 18 10 7 0 98 -104 202 -230z m232 -936 c-3 -2 -48 -2 -100 -1 l-96 3 97 75 97 76 3 -74 c2 -41 1 -76 -1 -79z m-1227 -23 c48 -26 38 -120 -15 -140 -47 -18 -51 -10 -10 24 36 31 39 36 30 62 -6 17 -21 33 -37 38 -22 8 -33 5 -62 -18 -40 -30 -47 -22 -15 18 22 28 73 36 109 16z m-1650 -475 l0 -305 -870 0 -870 0 0 305 0 305 870 0 870 0 0 -305z m959 133 l0 -173 -165 -132 -166 -133 -224 0 -224 0 0 305 0 305 390 0 390 0 -1 -172z m2081 -133 l0 -305 -950 0 -950 0 0 74 0 73 368 -4 367 -5 285 236 285 236 297 0 298 0 0 -305z m-2080 -245 l0 -60 -77 0 c-42 0 -73 3 -69 7 24 25 132 112 139 113 4 0 7 -27 7 -60z m250 -315 c149 -39 345 -153 474 -275 90 -85 137 -155 143 -213 6 -50 -10 -69 -72 -86 -243 -66 -809 177 -999 430 -43 57 -74 124 -63 136 3 3 43 11 89 19 109 18 340 12 428 -11z m-882 -5 c137 -15 145 -17 137 -49 -36 -146 -362 -391 -647 -485 -231 -77 -465 -77 -484 1 -27 107 163 306 413 432 192 96 356 125 581 101z"/>
 <path d="M3981 2589 c-51 -15 -118 -65 -146 -108 -36 -53 -51 -134 -36 -190 15 -54 82 -121 144 -145 40 -15 45 -20 50 -56 7 -56 51 -126 99 -157 53 -35 151 -38 213 -6 53 28 110 88 131 138 17 41 58 416 49 446 -14 42 -50 60 -141 69 -160 15 -328 20 -363 9z m189 -171 l126 -22 -12 -126 c-7 -70 -17 -137 -23 -148 -11 -21 -56 -40 -67 -29 -3 3 -10 38 -15 79 -13 94 -30 117 -109 144 -84 30 -97 42 -76 82 13 26 25 37 46 42 3 0 61 -9 130 -22z"/>
 </g>

</svg>