<!DOCTYPE svg PUBLIC "-//W3C//DTD SVG 20010904//EN" "http://www.w3.org/TR/2001/REC-SVG-20010904/DTD/svg10.dtd">
<svg version="1.0" xmlns="http://www.w3.org/2000/svg" width="225px" height="225px" viewBox="0 0 2250 2250" preserveAspectRatio="xMidYMid meet">
<g id="layer1" fill="#ffffff" stroke="none">
 <path d="M520 1801 c0 -413 -1 -440 -18 -445 -25 -8 -117 -104 -109 -113 4 -4 29 14 55 38 61 59 97 80 118 72 14 -5 16 -2 11 18 -4 13 -7 214 -7 447 l0 422 -25 0 -25 0 0 -439z"/>
 <path d="M1100 1930 c0 -269 2 -310 15 -310 8 0 15 -7 15 -15 0 -8 6 -15 12 -15 7 0 43 -30 80 -67 37 -37 71 -64 75 -60 8 9 -124 145 -149 153 -17 5 -18 27 -18 315 0 268 -2 309 -15 309 -13 0 -15 -41 -15 -310z"/>
 <path d="M1610 1668 l0 -573 27 -12 c15 -7 27 -12 27 -10 1 1 0 264 -2 585 l-2 582 -25 0 -25 0 0 -572z"/>
 <path d="M1000 1555 c-29 -30 -51 -58 -47 -61 8 -9 114 86 116 104 2 22 -14 12 -69 -43z"/>
 <path d="M1010 1485 c-29 -30 -51 -58 -47 -62 8 -7 117 95 117 109 0 18 -18 5 -70 -47z"/>
 <path d="M1140 1532 c0 -14 79 -86 87 -79 4 4 -11 25 -32 47 -38 39 -55 49 -55 32z"/>
 <path d="M820 1385 c-29 -30 -51 -58 -47 -62 8 -7 117 95 117 109 0 18 -18 5 -70 -47z"/>
 <path d="M1360 1402 c0 -14 109 -116 117 -109 4 4 -18 32 -47 62 -52 52 -70 65 -70 47z"/>
 <path d="M1290 1392 c0 -14 109 -116 117 -109 4 4 -18 32 -47 62 -52 52 -70 65 -70 47z"/>
 <path d="M600 1352 c0 -10 41 -35 47 -28 9 8 -17 36 -33 36 -8 0 -14 -3 -14 -8z"/>
 <path d="M820 1305 c-29 -30 -51 -58 -47 -62 8 -7 117 95 117 109 0 18 -18 5 -70 -47z"/>
 <path d="M485 1270 c-16 -16 -25 -33 -22 -37 8 -7 67 45 67 59 0 16 -17 8 -45 -22z"/>
 <path d="M610 1272 c0 -14 39 -46 47 -39 3 4 -2 16 -12 27 -19 21 -35 26 -35 12z"/>
 <path d="M1500 1265 c0 -3 13 -23 29 -45 16 -22 32 -56 35 -75 4 -22 13 -35 22 -35 11 0 13 6 9 21 -11 35 -75 139 -85 139 -6 0 -10 -2 -10 -5z"/>
 <path d="M716 1190 c-29 -45 -36 -81 -11 -60 8 7 15 18 15 25 0 7 9 24 20 38 22 27 25 37 11 37 -4 0 -20 -18 -35 -40z"/>
 <path d="M1470 1214 c0 -3 9 -17 19 -30 11 -14 22 -42 26 -64 4 -26 12 -40 22 -40 11 0 14 7 9 23 -13 52 -76 144 -76 111z"/>
 <path d="M1375 1203 c-12 -2 -26 -13 -33 -24 -11 -17 -9 -25 8 -49 12 -17 30 -30 41 -30 25 0 24 5 -7 46 -32 41 -25 44 16 7 20 -18 30 -36 30 -55 0 -25 4 -29 22 -26 25 3 38 38 15 38 -10 0 -13 7 -10 18 4 18 -41 84 -55 81 -4 -1 -16 -4 -27 -6z"/>
 <path d="M643 1189 c-7 -7 -13 -22 -13 -33 0 -19 1 -19 16 -4 9 8 14 23 12 32 -2 14 -5 15 -15 5z"/>
 <path d="M260 1135 c-29 -30 -51 -58 -47 -62 8 -7 117 95 117 109 0 18 -18 5 -70 -47z"/>
 <path d="M330 1125 c-29 -30 -51 -58 -47 -62 8 -7 117 95 117 109 0 18 -18 5 -70 -47z"/>
 <path d="M610 1105 c0 -8 7 -15 15 -15 8 0 15 7 15 15 0 8 -7 15 -15 15 -8 0 -15 -7 -15 -15z"/>
 <path d="M670 1085 c0 -8 7 -15 15 -15 8 0 15 7 15 15 0 8 -7 15 -15 15 -8 0 -15 -7 -15 -15z"/>
 <path d="M1370 1055 c0 -8 7 -15 15 -15 8 0 15 7 15 15 0 8 -7 15 -15 15 -8 0 -15 -7 -15 -15z"/>
 <path d="M600 1040 c0 -11 7 -20 15 -20 8 0 15 9 15 20 0 11 -7 20 -15 20 -8 0 -15 -9 -15 -20z"/>
 <path d="M1720 1052 c0 -14 79 -86 87 -79 4 4 -11 25 -32 47 -38 39 -55 49 -55 32z"/>
 <path d="M1592 1018 c-17 -17 -15 -38 3 -38 8 0 15 4 15 9 0 5 3 16 6 25 7 19 -7 21 -24 4z"/>
 <path d="M115 1000 c-10 -11 -15 -23 -12 -27 8 -7 47 25 47 39 0 14 -16 9 -35 -12z"/>
 <path d="M1430 998 c-1 -24 -47 -85 -57 -75 -3 3 5 20 17 36 22 32 20 51 -5 51 -18 0 -38 -37 -31 -55 3 -8 0 -15 -6 -17 -17 -6 9 -48 30 -48 9 0 22 10 27 22 6 13 21 28 35 35 43 21 53 73 15 73 -19 0 -25 -5 -25 -22z"/>
 <path d="M1680 1012 c0 -14 59 -66 67 -59 3 4 -6 21 -22 37 -28 30 -45 38 -45 22z"/>
 <path d="M162 966 c-40 -43 -88 -124 -79 -132 3 -3 16 14 30 38 14 24 44 61 66 83 23 21 41 43 41 47 0 18 -20 6 -58 -36z"/>
 <path d="M676 968 c8 -26 35 -70 40 -65 9 9 -20 87 -33 87 -10 0 -12 -6 -7 -22z"/>
 <path d="M1520 980 c0 -5 7 -10 15 -10 8 0 15 5 15 10 0 6 -7 10 -15 10 -8 0 -15 -4 -15 -10z"/>
 <path d="M610 970 c0 -5 7 -10 15 -10 8 0 15 5 15 10 0 6 -7 10 -15 10 -8 0 -15 -4 -15 -10z"/>
 <path d="M1564 925 c-3 -19 -10 -38 -15 -41 -11 -7 -12 -24 -1 -24 8 0 52 80 52 94 0 3 -7 6 -15 6 -8 0 -17 -14 -21 -35z"/>
 <path d="M47 895 c-29 -60 -33 -75 -17 -75 6 0 10 8 10 18 0 9 11 37 25 61 27 47 29 51 17 51 -4 0 -20 -25 -35 -55z"/>
 <path d="M1510 928 c-7 -12 -24 -35 -38 -50 -27 -29 -24 -50 3 -28 20 16 58 90 52 97 -3 3 -11 -6 -17 -19z"/>
 <path d="M620 936 c0 -3 16 -32 35 -65 33 -56 79 -101 104 -101 20 0 11 16 -20 34 -36 21 -89 91 -89 118 0 10 -7 18 -15 18 -8 0 -15 -2 -15 -4z"/>
 <path d="M1860 922 c0 -14 109 -116 117 -109 4 4 -18 32 -47 62 -52 52 -70 65 -70 47z"/>
 <path d="M1050 890 c0 -5 7 -10 15 -10 8 0 15 5 15 10 0 6 -7 10 -15 10 -8 0 -15 -4 -15 -10z"/>
 <path d="M1150 891 c0 -10 30 -24 37 -17 3 3 2 9 -2 15 -8 13 -35 15 -35 2z"/>
 <path d="M730 872 c0 -12 30 -37 67 -56 40 -20 53 -20 53 -1 0 8 -8 15 -19 15 -10 0 -35 11 -55 25 -40 27 -46 29 -46 17z"/>
 <path d="M1830 872 c0 -14 109 -116 117 -109 4 4 -18 32 -47 62 -52 52 -70 65 -70 47z"/>
 <path d="M995 859 c-4 -6 -5 -12 -2 -15 7 -7 37 7 37 17 0 13 -27 11 -35 -2z"/>
 <path d="M1210 852 c0 -7 63 -42 75 -42 3 0 5 6 5 13 0 7 -15 18 -33 25 -39 14 -47 15 -47 4z"/>
 <path d="M1120 841 c0 -12 76 -61 95 -61 27 0 15 15 -35 43 -55 30 -60 31 -60 18z"/>
 <path d="M913 833 c-21 -4 -34 -33 -14 -33 19 0 71 23 71 31 0 9 -17 10 -57 2z"/>
 <path d="M1398 833 c-10 -2 -18 -11 -18 -20 0 -10 6 -13 16 -9 9 3 20 6 25 6 5 0 9 7 9 15 0 15 -2 16 -32 8z"/>
 <path d="M1485 815 c-16 -14 -45 -28 -62 -31 -20 -4 -33 -12 -33 -21 0 -11 7 -14 28 -9 32 8 104 56 110 74 6 19 -10 14 -43 -13z"/>
 <path d="M1310 815 c0 -8 7 -15 15 -15 8 0 15 7 15 15 0 8 -7 15 -15 15 -8 0 -15 -7 -15 -15z"/>
 <path d="M10 785 c0 -15 4 -24 10 -20 13 8 13 32 0 40 -6 4 -10 -5 -10 -20z"/>
 <path d="M975 792 c-16 -9 -31 -17 -32 -18 -1 0 1 -24 6 -53 7 -46 6 -56 -15 -87 -13 -19 -24 -39 -24 -44 0 -6 -6 -10 -14 -10 -12 0 -13 6 -4 33 6 17 11 44 11 60 0 16 5 27 13 27 8 0 14 11 14 25 0 18 -5 25 -19 25 -11 0 -23 5 -26 10 -10 15 -35 12 -35 -5 0 -8 5 -15 10 -15 15 0 12 -73 -5 -96 -17 -25 -8 -72 17 -88 40 -25 121 76 111 138 -7 48 3 83 27 91 22 7 27 25 8 25 -7 0 -26 -8 -43 -18z"/>
 <path d="M1090 800 c0 -5 7 -10 15 -10 8 0 15 5 15 10 0 6 -7 10 -15 10 -8 0 -15 -4 -15 -10z"/>
 <path d="M1040 775 c0 -8 7 -15 15 -15 8 0 15 7 15 15 0 8 -7 15 -15 15 -8 0 -15 -7 -15 -15z"/>
 <path d="M50 755 c0 -16 6 -25 15 -25 9 0 15 9 15 25 0 16 -6 25 -15 25 -9 0 -15 -9 -15 -25z"/>
 <path d="M790 765 c0 -8 5 -15 10 -15 6 0 10 7 10 15 0 8 -4 15 -10 15 -5 0 -10 -7 -10 -15z"/>
 <path d="M1100 715 c0 -41 4 -55 14 -55 8 0 16 -6 19 -12 2 -8 8 -9 13 -4 5 5 4 11 -3 13 -8 3 -13 25 -13 59 0 41 -4 54 -15 54 -12 0 -15 -13 -15 -55z"/>
 <path d="M1205 730 c-16 -16 -25 -33 -22 -37 8 -7 67 45 67 59 0 16 -17 8 -45 -22z"/>
 <path d="M2040 752 c0 -4 25 -32 56 -62 31 -30 70 -79 86 -108 39 -67 48 -61 13 9 -37 73 -155 196 -155 161z"/>
 <path d="M1238 683 c-89 -91 -161 -213 -125 -213 9 0 19 18 26 46 9 36 29 63 96 133 47 49 85 91 85 95 0 16 -21 1 -82 -61z"/>
 <path d="M50 675 c0 -16 6 -25 15 -25 9 0 15 9 15 25 0 16 -6 25 -15 25 -9 0 -15 -9 -15 -25z"/>
 <path d="M2020 692 c0 -14 79 -86 87 -79 4 4 -11 25 -32 47 -38 39 -55 49 -55 32z"/>
 <path d="M10 645 c0 -15 4 -24 10 -20 13 8 13 32 0 40 -6 4 -10 -5 -10 -20z"/>
 <path d="M1040 660 c0 -5 7 -10 15 -10 8 0 15 5 15 10 0 6 -7 10 -15 10 -8 0 -15 -4 -15 -10z"/>
 <path d="M1030 612 c0 -10 -7 -27 -15 -38 -16 -22 -19 -34 -7 -34 7 0 25 30 50 83 2 4 -3 7 -12 7 -9 0 -16 -8 -16 -18z"/>
 <path d="M20 600 c0 -14 30 -73 35 -68 6 6 -19 78 -27 78 -5 0 -8 -5 -8 -10z"/>
 <path d="M80 597 c0 -16 31 -67 40 -67 6 0 10 3 10 8 -1 10 -50 69 -50 59z"/>
 <path d="M2120 581 c0 -6 5 -13 10 -16 6 -3 15 -26 21 -51 7 -25 17 -44 25 -44 19 0 18 5 -13 67 -25 49 -43 67 -43 44z"/>
 <path d="M590 558 c0 -15 121 -88 144 -88 24 0 19 18 -6 26 -13 4 -47 22 -76 40 -59 38 -62 39 -62 22z"/>
 <path d="M1970 556 c0 -8 7 -16 15 -20 17 -6 18 -4 9 18 -8 20 -24 21 -24 2z"/>
 <path d="M453 527 c-51 -31 -65 -47 -42 -47 15 0 118 63 119 73 0 14 -26 6 -77 -26z"/>
 <path d="M2030 552 c0 -5 8 -16 18 -25 13 -12 17 -26 14 -47 -4 -27 -1 -30 22 -30 34 0 33 12 -4 66 -29 41 -50 56 -50 36z"/>
 <path d="M495 484 c-27 -19 -67 -40 -87 -46 -21 -6 -38 -18 -38 -25 0 -10 7 -12 23 -7 28 9 84 37 122 63 41 28 53 27 121 -14 59 -36 84 -43 84 -25 0 6 -4 10 -8 10 -5 0 -38 18 -75 40 -36 22 -72 40 -79 39 -7 0 -35 -16 -63 -35z"/>
 <path d="M72 499 c2 -7 10 -15 17 -17 8 -3 12 1 9 9 -2 7 -10 15 -17 17 -8 3 -12 -1 -9 -9z"/>
 <path d="M2210 500 c0 -5 5 -10 10 -10 6 0 10 5 10 10 0 6 -4 10 -10 10 -5 0 -10 -4 -10 -10z"/>
 <path d="M160 491 c0 -9 50 -41 65 -41 13 0 3 28 -12 33 -10 2 -26 8 -35 12 -11 4 -18 3 -18 -4z"/>
 <path d="M1960 491 c0 -6 7 -11 15 -11 16 0 17 -10 15 -100 -2 -89 -4 -100 -17 -100 -7 0 -13 -4 -13 -10 0 -5 9 -10 19 -10 20 0 37 32 26 50 -3 5 0 10 7 10 10 0 13 19 11 76 0 42 -5 80 -10 84 -15 14 -53 22 -53 11z"/>
 <path d="M908 483 c-10 -2 -18 -11 -18 -19 0 -17 2 -17 35 -2 42 19 31 34 -17 21z"/>
 <path d="M1010 475 c-16 -19 -5 -34 12 -17 7 7 20 12 30 12 10 0 18 5 18 10 0 16 -46 12 -60 -5z"/>
 <path d="M330 465 c0 -8 5 -15 10 -15 6 0 10 7 10 15 0 8 -4 15 -10 15 -5 0 -10 -7 -10 -15z"/>
 <path d="M770 465 c0 -8 5 -15 10 -15 6 0 10 7 10 15 0 8 -4 15 -10 15 -5 0 -10 -7 -10 -15z"/>
 <path d="M2224 469 c-3 -6 -1 -16 5 -22 8 -8 11 -5 11 11 0 24 -5 28 -16 11z"/>
 <path d="M250 455 c0 -10 10 -15 30 -15 20 0 30 5 30 15 0 10 -10 15 -30 15 -20 0 -30 -5 -30 -15z"/>
 <path d="M820 455 c0 -9 9 -15 25 -15 16 0 25 6 25 15 0 9 -9 15 -25 15 -16 0 -25 -6 -25 -15z"/>
 <path d="M120 450 c0 -5 5 -10 10 -10 6 0 10 5 10 10 0 6 -4 10 -10 10 -5 0 -10 -4 -10 -10z"/>
 <path d="M1090 430 c0 -11 7 -20 15 -20 8 0 15 9 15 20 0 11 -7 20 -15 20 -8 0 -15 -9 -15 -20z"/>
 <path d="M2170 425 c0 -16 6 -25 15 -25 9 0 15 9 15 25 0 16 -6 25 -15 25 -9 0 -15 -9 -15 -25z"/>
 <path d="M940 430 c-8 -5 -12 -12 -8 -15 9 -9 48 4 48 16 0 12 -21 11 -40 -1z"/>
 <path d="M160 421 c0 -8 52 -31 71 -31 5 0 9 6 9 14 0 7 -14 16 -31 20 -42 8 -49 8 -49 -3z"/>
 <path d="M1030 385 c0 -33 4 -45 15 -45 11 0 15 12 15 45 0 33 -4 45 -15 45 -11 0 -15 -12 -15 -45z"/>
 <path d="M330 405 c0 -8 5 -15 10 -15 6 0 10 7 10 15 0 8 -4 15 -10 15 -5 0 -10 -7 -10 -15z"/>
 <path d="M770 405 c0 -8 7 -15 15 -15 8 0 15 7 15 15 0 8 -7 15 -15 15 -8 0 -15 -7 -15 -15z"/>
 <path d="M890 405 c0 -8 5 -15 10 -15 6 0 10 7 10 15 0 8 -4 15 -10 15 -5 0 -10 -7 -10 -15z"/>
 <path d="M2070 373 c3 -56 -5 -78 -42 -122 -21 -24 -33 -31 -48 -26 -26 8 -26 -11 -1 -25 25 -13 48 -4 54 21 3 10 12 19 20 19 8 0 24 15 35 33 23 40 20 147 -5 147 -11 0 -14 -12 -13 -47z"/>
 <path d="M2170 340 c0 -11 7 -20 15 -20 8 0 15 9 15 20 0 11 -7 20 -15 20 -8 0 -15 -9 -15 -20z"/>
 <path d="M1090 335 c0 -8 7 -15 15 -15 8 0 15 7 15 15 0 8 -7 15 -15 15 -8 0 -15 -7 -15 -15z"/>
 <path d="M2223 314 c-3 -8 -1 -20 6 -27 8 -8 11 -4 11 16 0 30 -7 35 -17 11z"/>
 <path d="M1040 290 c0 -5 7 -10 15 -10 8 0 15 5 15 10 0 6 -7 10 -15 10 -8 0 -15 -4 -15 -10z"/>
 <path d="M1100 294 c0 -14 44 -94 52 -94 11 0 10 17 -1 24 -5 3 -12 22 -15 41 -4 21 -13 35 -21 35 -8 0 -15 -3 -15 -6z"/>
 <path d="M2163 278 c-6 -7 -13 -26 -17 -43 l-7 -30 21 25 c11 14 20 33 20 43 0 20 -4 21 -17 5z"/>
 <path d="M1060 247 c0 -19 32 -77 43 -77 10 0 9 18 -3 25 -5 3 -10 14 -10 24 0 10 -7 24 -15 31 -12 10 -15 10 -15 -3z"/>
 <path d="M2191 205 c-23 -40 -25 -45 -13 -45 10 0 45 70 39 77 -3 2 -14 -12 -26 -32z"/>
 <path d="M1595 213 c-17 -10 -54 -31 -83 -48 -28 -16 -52 -33 -52 -37 0 -16 28 -6 90 32 36 22 77 40 93 40 17 0 27 5 27 15 0 20 -38 19 -75 -2z"/>
 <path d="M1690 203 c0 -12 154 -103 175 -103 16 0 1 29 -17 34 -13 3 -49 21 -82 41 -59 35 -76 41 -76 28z"/>
 <path d="M2110 180 c0 -5 5 -10 10 -10 6 0 10 5 10 10 0 6 -4 10 -10 10 -5 0 -10 -4 -10 -10z"/>
 <path d="M1170 171 c0 -13 29 -35 37 -28 7 8 -15 37 -28 37 -5 0 -9 -4 -9 -9z"/>
 <path d="M1600 150 c0 -5 7 -10 15 -10 8 0 15 5 15 10 0 6 -7 10 -15 10 -8 0 -15 -4 -15 -10z"/>
 <path d="M1660 151 c0 -10 30 -24 37 -17 3 3 2 9 -2 15 -8 13 -35 15 -35 2z"/>
 <path d="M2055 139 c-16 -10 -38 -19 -47 -19 -10 0 -18 -7 -18 -15 0 -8 6 -15 13 -15 19 0 90 43 95 58 5 17 -7 14 -43 -9z"/>
 <path d="M1120 141 c0 -5 19 -26 42 -45 41 -35 68 -46 68 -26 0 6 -4 10 -8 10 -5 0 -27 16 -49 35 -43 36 -53 41 -53 26z"/>
 <path d="M2130 125 c-7 -9 -10 -18 -7 -22 8 -7 37 15 37 28 0 14 -16 11 -30 -6z"/>
 <path d="M1230 120 c0 -5 7 -10 15 -10 8 0 15 5 15 10 0 6 -7 10 -15 10 -8 0 -15 -4 -15 -10z"/>
 <path d="M1508 102 c-32 -15 -58 -33 -58 -39 0 -7 2 -13 5 -13 15 0 125 62 125 70 0 14 -7 12 -72 -18z"/>
 <path d="M1280 105 c0 -8 5 -15 10 -15 6 0 10 7 10 15 0 8 -4 15 -10 15 -5 0 -10 -7 -10 -15z"/>
 <path d="M1380 105 c0 -8 7 -15 15 -15 8 0 15 7 15 15 0 8 -7 15 -15 15 -8 0 -15 -7 -15 -15z"/>
 <path d="M1720 112 c0 -5 24 -21 53 -34 75 -36 97 -42 97 -26 0 7 -26 23 -58 36 -80 33 -92 36 -92 24z"/>
 <path d="M1890 105 c0 -8 7 -15 15 -15 8 0 15 7 15 15 0 8 -7 15 -15 15 -8 0 -15 -7 -15 -15z"/>
 <path d="M2048 77 c-16 -6 -28 -17 -28 -24 0 -17 5 -16 46 3 56 27 41 44 -18 21z"/>
 <path d="M1410 55 c0 -8 5 -15 10 -15 6 0 10 7 10 15 0 8 -4 15 -10 15 -5 0 -10 -7 -10 -15z"/>
 <path d="M1280 45 c0 -12 13 -15 55 -15 42 0 55 3 55 15 0 12 -13 15 -55 15 -42 0 -55 -3 -55 -15z"/>
 <path d="M1890 45 c0 -12 13 -15 55 -15 42 0 55 3 55 15 0 12 -13 15 -55 15 -42 0 -55 -3 -55 -15z"/>
 </g>
<g id="layer2" fill="#ffffff" stroke="none">
 <path d="M528 1805 c2 -420 1 -445 -15 -445 -10 0 -31 -16 -46 -35 -15 -19 -34 -35 -42 -35 -7 0 -46 -36 -86 -80 -40 -44 -78 -80 -84 -80 -14 0 -175 -167 -175 -181 0 -5 -4 -9 -9 -9 -4 0 -21 -28 -37 -62 -26 -56 -29 -74 -29 -163 0 -93 2 -105 33 -167 39 -80 97 -134 153 -143 21 -4 41 -11 45 -16 7 -13 81 -11 89 2 4 6 14 8 22 5 9 -4 21 -2 27 3 6 5 30 14 54 21 24 6 46 18 49 26 3 7 11 14 19 14 8 0 14 5 14 10 0 6 6 10 14 10 8 0 16 5 18 11 4 12 58 1 58 -12 0 -5 7 -9 15 -9 8 0 15 -5 15 -10 0 -16 122 -71 142 -65 9 3 19 1 23 -5 8 -13 82 -13 90 1 4 6 14 8 22 5 20 -8 73 21 104 56 l25 30 -1 -88 c-1 -49 1 -93 4 -99 3 -5 6 -14 7 -20 2 -21 37 -95 46 -95 4 0 8 -7 8 -15 0 -9 7 -18 15 -21 8 -4 15 -13 15 -20 0 -8 8 -18 18 -21 9 -4 21 -12 25 -20 18 -30 70 -45 151 -45 45 0 86 1 91 2 6 1 15 3 20 4 32 6 126 49 133 60 23 36 111 47 130 16 7 -11 21 -20 32 -20 12 0 23 -6 26 -14 3 -8 20 -18 37 -22 18 -3 43 -11 57 -16 41 -17 163 -13 200 6 18 9 37 16 43 16 12 0 87 77 87 89 0 5 5 11 10 13 6 2 21 30 35 63 29 72 34 203 10 273 -20 58 -63 142 -73 142 -4 0 -12 10 -17 22 -6 12 -22 29 -37 37 -15 9 -55 46 -89 84 -33 37 -66 67 -73 67 -7 0 -46 36 -85 80 -40 44 -78 80 -84 80 -6 0 -28 18 -49 41 -28 31 -42 39 -58 34 l-20 -6 2 580 c3 575 3 581 -17 581 -20 0 -20 -6 -17 -577 3 -616 2 -621 -43 -499 -10 27 -26 57 -36 67 -11 11 -19 23 -19 27 0 12 -64 72 -76 72 -6 0 -48 41 -93 90 -45 50 -88 90 -95 90 -8 0 -31 19 -53 43 -22 23 -49 47 -59 53 -18 11 -19 28 -19 323 l0 311 -22 0 -23 0 0 -310 0 -311 -37 -39 c-20 -22 -42 -40 -49 -40 -7 0 -50 -40 -95 -90 -45 -49 -87 -90 -93 -90 -6 0 -30 -19 -53 -42 l-43 -42 -37 36 c-46 44 -77 60 -97 52 -15 -6 -16 35 -14 435 3 435 3 441 -17 441 -20 0 -20 -6 -17 -445z m710 -375 c46 -50 89 -90 95 -90 17 0 141 -136 167 -182 18 -32 23 -56 23 -117 0 -132 -57 -209 -160 -215 -21 -2 -43 1 -49 6 -7 5 -16 8 -20 7 -13 -4 -107 44 -120 60 -20 25 -84 23 -131 -5 -24 -14 -43 -29 -43 -35 0 -6 -5 -7 -10 -4 -6 4 -23 -1 -37 -10 -72 -48 -191 -4 -239 88 -16 29 -24 156 -12 163 5 3 8 13 8 22 0 10 8 33 18 52 22 44 111 140 128 140 7 0 48 38 90 85 43 47 83 85 89 85 7 0 22 12 36 26 40 42 71 28 167 -76z m-621 -166 c39 -29 40 -40 12 -93 -11 -22 -18 -45 -14 -51 3 -5 3 -16 -2 -22 -11 -18 -13 -117 -2 -124 5 -3 7 -9 4 -13 -2 -5 7 -31 20 -60 37 -76 128 -163 155 -146 5 3 12 0 15 -6 5 -7 21 -8 43 -4 l35 6 -6 -47 c-2 -25 -9 -49 -13 -53 -5 -3 -15 -16 -22 -28 -10 -19 -10 -27 0 -43 17 -28 86 -24 102 5 6 10 17 25 24 33 6 7 12 22 12 32 0 10 5 22 10 25 14 9 13 78 -2 93 -9 9 -7 12 10 14 12 0 27 1 34 2 8 1 11 -19 10 -64 0 -36 -2 -67 -3 -70 -1 -3 -3 -9 -3 -15 -4 -27 -33 -82 -56 -103 -27 -24 -79 -55 -95 -57 -5 -1 -18 -5 -27 -9 -10 -5 -26 -5 -35 0 -10 4 -22 8 -28 9 -5 1 -27 9 -49 18 -21 9 -42 15 -46 12 -4 -3 -10 1 -13 8 -6 17 -103 67 -128 67 -25 0 -79 -27 -79 -40 0 -6 -6 -10 -13 -10 -7 0 -40 -13 -72 -30 -32 -16 -61 -27 -66 -24 -4 2 -17 -1 -29 -8 -16 -10 -24 -10 -40 0 -12 7 -25 10 -30 7 -5 -3 -11 -1 -15 5 -3 5 -12 10 -20 10 -23 0 -95 82 -95 109 0 5 -5 22 -12 38 -14 32 -19 123 -8 138 4 6 15 36 25 68 10 31 22 57 27 57 4 0 13 11 18 25 5 14 20 29 33 34 13 5 55 44 92 85 38 42 74 76 81 76 7 0 48 38 90 85 88 96 112 104 171 59z m1151 -344 c46 -50 89 -90 96 -90 7 0 48 -39 91 -86 43 -47 88 -90 101 -94 12 -5 28 -20 36 -33 7 -14 26 -45 41 -70 16 -25 29 -56 29 -69 1 -13 5 -27 8 -33 10 -13 7 -111 -3 -121 -4 -4 -7 -18 -7 -32 0 -46 -71 -152 -102 -152 -8 0 -22 -6 -31 -12 -14 -11 -119 -16 -137 -7 -3 1 -9 3 -15 4 -5 0 -29 11 -52 23 -23 12 -49 22 -58 22 -8 0 -15 5 -15 10 0 6 -7 10 -15 10 -8 0 -15 4 -15 10 0 31 -132 28 -156 -5 -6 -8 -16 -15 -23 -15 -6 0 -11 -3 -11 -8 0 -4 -17 -12 -37 -19 -21 -6 -51 -17 -68 -24 -43 -17 -135 -15 -171 4 -57 29 -143 144 -128 169 3 5 2 13 -2 20 -10 16 -12 110 -4 123 4 6 7 18 7 27 0 24 35 101 50 111 7 4 13 13 13 20 0 15 81 97 96 97 6 0 19 9 29 20 10 11 31 20 46 20 15 0 30 4 33 9 3 5 22 12 41 15 19 4 35 11 35 16 0 6 4 10 9 10 13 0 71 56 71 69 0 6 4 11 9 11 5 0 15 17 22 38 6 20 16 42 21 49 5 7 7 17 3 23 -15 23 3 37 42 33 33 -3 49 -16 121 -93z m-600 -120 c9 -1 30 -12 47 -25 27 -22 28 -25 10 -31 -11 -4 -40 -25 -63 -48 l-44 -41 4 67 c1 36 0 69 -4 73 -3 3 -3 15 -1 26 5 20 6 20 20 -1 8 -11 22 -20 31 -20z m-218 -115 c-7 -8 -9 -18 -6 -23 3 -5 -8 -22 -24 -37 -35 -33 -38 -24 -10 23 13 22 18 41 14 58 -5 18 -1 29 12 39 17 12 19 11 22 -16 2 -17 -2 -37 -8 -44z"/>
 <path d="M1352 1198 c-7 -7 -12 -21 -12 -32 0 -22 20 -82 33 -103 4 -6 3 -14 -3 -18 -5 -3 -10 -16 -10 -28 0 -13 -7 -32 -15 -44 -25 -36 -2 -73 46 -73 33 0 79 56 79 95 0 8 6 24 12 35 10 16 10 24 0 41 -7 11 -10 28 -7 38 3 10 -3 26 -15 39 -11 11 -20 26 -20 32 0 11 -41 30 -64 30 -6 0 -17 -5 -24 -12z m83 -149 c-4 -64 -31 -127 -49 -109 -7 7 -7 13 -1 18 39 27 46 111 15 169 l-21 38 29 -31 c26 -28 29 -38 27 -85z"/>
 <path d="M1968 559 c-30 -22 -37 -56 -14 -65 8 -3 18 -19 21 -35 4 -16 11 -31 16 -34 12 -8 12 -50 -1 -75 -5 -11 -14 -29 -20 -40 -5 -11 -15 -29 -22 -39 -10 -16 -9 -25 2 -45 11 -21 21 -26 50 -26 34 0 70 23 70 44 0 4 7 14 15 22 8 9 15 24 15 34 0 10 5 22 10 25 6 3 10 33 10 65 0 32 -4 62 -10 65 -5 3 -10 15 -10 25 0 21 -72 100 -92 100 -7 0 -25 -10 -40 -21z m75 -69 c15 -18 23 -37 20 -49 -2 -10 0 -22 6 -25 14 -9 14 -73 1 -81 -6 -4 -10 -12 -9 -18 3 -18 -17 -61 -34 -75 -13 -11 -17 -10 -25 4 -7 13 -5 23 9 38 11 11 17 26 15 33 -3 7 -1 15 4 18 13 8 13 92 0 100 -5 3 -7 12 -4 20 4 8 -1 18 -10 21 -17 6 -23 44 -7 44 5 0 20 -13 34 -30z"/>
 </g>

</svg>