<!DOCTYPE svg PUBLIC "-//W3C//DTD SVG 20010904//EN" "http://www.w3.org/TR/2001/REC-SVG-20010904/DTD/svg10.dtd">
<svg version="1.0" xmlns="http://www.w3.org/2000/svg" width="300px" height="300px" viewBox="0 0 3000 3000" preserveAspectRatio="xMidYMid meet">
<g id="layer1" fill="#ffffff" stroke="none">
 <path d="M140 2361 c-19 -10 -50 -37 -68 -60 l-32 -43 0 -699 c0 -761 -3 -725 57 -781 60 -57 67 -58 495 -58 228 0 408 4 427 10 42 12 96 62 122 112 15 29 19 58 19 138 l0 100 283 0 c278 0 285 0 328 23 24 13 59 43 77 66 l33 43 -3 528 -3 528 -30 38 c-65 79 -3 74 -885 74 -745 0 -787 -1 -820 -19z m1350 -626 l0 -255 -620 0 -620 0 0 255 0 255 620 0 620 0 0 -255z"/>
 <path d="M2763 2199 l-183 -90 0 -45 0 -44 -272 -2 -273 -3 0 -280 0 -280 273 -3 272 -2 0 -45 0 -45 181 -90 c99 -50 187 -90 195 -90 12 0 14 82 12 552 -2 357 -7 552 -13 554 -5 2 -92 -37 -192 -87z"/>
 <path d="M1497 1024 c-4 -4 -7 -27 -7 -50 l0 -43 -137 -3 -138 -3 -6 -46 c-8 -52 -22 -83 -51 -116 -11 -12 -17 -26 -13 -32 4 -7 65 -11 175 -11 l169 0 3 -42 3 -43 390 -3 c388 -2 391 -2 435 20 117 61 148 205 63 299 -69 76 -52 74 -488 77 -215 2 -394 0 -398 -4z"/>
 </g>

</svg>